<svg id="visual" viewBox="0 0 960 540" width="960" height="540" xmlns="http://www.w3.org/2000/svg" xmlns:xlink="http://www.w3.org/1999/xlink" version="1.1"><rect x="0" y="0" width="960" height="540" fill="#931C1C"></rect><path d="M632 540L652 463L660 386L623 309L619 231L704 154L608 77L616 0L960 0L960 77L960 154L960 231L960 309L960 386L960 463L960 540Z" fill="#f5730a"></path><path d="M730 540L665 463L678 386L653 309L685 231L643 154L689 77L755 0L960 0L960 77L960 154L960 231L960 309L960 386L960 463L960 540Z" fill="#da5b09"></path><path d="M810 540L757 463L764 386L808 309L734 231L710 154L709 77L710 0L960 0L960 77L960 154L960 231L960 309L960 386L960 463L960 540Z" fill="#be4407"></path><path d="M848 540L866 463L807 386L815 309L828 231L796 154L806 77L830 0L960 0L960 77L960 154L960 231L960 309L960 386L960 463L960 540Z" fill="#a32d04"></path><path d="M873 540L869 463L884 386L916 309L904 231L848 154L899 77L859 0L960 0L960 77L960 154L960 231L960 309L960 386L960 463L960 540Z" fill="#871400"></path></svg>