<svg id="visual" viewBox="0 0 960 540" width="960" height="540" xmlns="http://www.w3.org/2000/svg" xmlns:xlink="http://www.w3.org/1999/xlink" version="1.1"><rect x="0" y="0" width="960" height="540" fill="#871400"></rect><path d="M0 359L10.7 351C21.3 343 42.7 327 64 332.3C85.3 337.7 106.7 364.3 128 374.8C149.3 385.3 170.7 379.7 192 367.8C213.3 356 234.7 338 256 333C277.3 328 298.7 336 320 340.2C341.3 344.3 362.7 344.7 384 345.2C405.3 345.7 426.7 346.3 448 341.8C469.3 337.3 490.7 327.7 512 322.5C533.3 317.3 554.7 316.7 576 322.7C597.3 328.7 618.7 341.3 640 340.2C661.3 339 682.7 324 704 316.2C725.3 308.3 746.7 307.7 768 312.2C789.3 316.7 810.7 326.3 832 329.5C853.3 332.7 874.7 329.3 896 326.3C917.3 323.3 938.7 320.7 949.3 319.3L960 318L960 541L949.3 541C938.7 541 917.3 541 896 541C874.7 541 853.3 541 832 541C810.7 541 789.3 541 768 541C746.7 541 725.3 541 704 541C682.7 541 661.3 541 640 541C618.7 541 597.3 541 576 541C554.7 541 533.3 541 512 541C490.7 541 469.3 541 448 541C426.7 541 405.3 541 384 541C362.7 541 341.3 541 320 541C298.7 541 277.3 541 256 541C234.7 541 213.3 541 192 541C170.7 541 149.3 541 128 541C106.7 541 85.3 541 64 541C42.7 541 21.3 541 10.7 541L0 541Z" fill="#f5730a"></path><path d="M0 385L10.7 381.3C21.3 377.7 42.7 370.3 64 367.5C85.3 364.7 106.7 366.3 128 365.3C149.3 364.3 170.7 360.7 192 356.3C213.3 352 234.7 347 256 346.5C277.3 346 298.7 350 320 358.2C341.3 366.3 362.7 378.7 384 391.2C405.3 403.7 426.7 416.3 448 414.2C469.3 412 490.7 395 512 390.3C533.3 385.7 554.7 393.3 576 399.8C597.3 406.3 618.7 411.7 640 408.3C661.3 405 682.7 393 704 390.3C725.3 387.7 746.7 394.3 768 390.8C789.3 387.3 810.7 373.7 832 375.8C853.3 378 874.7 396 896 398.5C917.3 401 938.7 388 949.3 381.5L960 375L960 541L949.3 541C938.7 541 917.3 541 896 541C874.7 541 853.3 541 832 541C810.7 541 789.3 541 768 541C746.7 541 725.3 541 704 541C682.7 541 661.3 541 640 541C618.7 541 597.3 541 576 541C554.7 541 533.3 541 512 541C490.7 541 469.3 541 448 541C426.7 541 405.3 541 384 541C362.7 541 341.3 541 320 541C298.7 541 277.3 541 256 541C234.7 541 213.3 541 192 541C170.7 541 149.3 541 128 541C106.7 541 85.3 541 64 541C42.7 541 21.3 541 10.7 541L0 541Z" fill="#e36015"></path><path d="M0 388L10.7 394.8C21.3 401.7 42.7 415.3 64 421.7C85.3 428 106.7 427 128 425C149.3 423 170.7 420 192 417.5C213.3 415 234.7 413 256 407.3C277.3 401.7 298.7 392.3 320 391.3C341.3 390.3 362.7 397.7 384 401.2C405.3 404.7 426.7 404.3 448 400C469.3 395.7 490.7 387.3 512 389C533.3 390.7 554.7 402.3 576 406.8C597.3 411.3 618.7 408.7 640 409.8C661.3 411 682.7 416 704 421.2C725.3 426.3 746.7 431.7 768 427.8C789.3 424 810.7 411 832 403.3C853.3 395.7 874.7 393.3 896 394.7C917.3 396 938.7 401 949.3 403.5L960 406L960 541L949.3 541C938.7 541 917.3 541 896 541C874.7 541 853.3 541 832 541C810.7 541 789.3 541 768 541C746.7 541 725.3 541 704 541C682.7 541 661.3 541 640 541C618.7 541 597.3 541 576 541C554.7 541 533.3 541 512 541C490.7 541 469.3 541 448 541C426.7 541 405.3 541 384 541C362.7 541 341.3 541 320 541C298.7 541 277.3 541 256 541C234.7 541 213.3 541 192 541C170.7 541 149.3 541 128 541C106.7 541 85.3 541 64 541C42.7 541 21.3 541 10.7 541L0 541Z" fill="#d04e1b"></path><path d="M0 427L10.7 427.2C21.3 427.3 42.7 427.7 64 426.2C85.3 424.7 106.7 421.3 128 423.5C149.3 425.7 170.7 433.3 192 436.8C213.3 440.3 234.7 439.7 256 436.7C277.3 433.7 298.7 428.3 320 429.8C341.3 431.3 362.7 439.7 384 438.8C405.3 438 426.7 428 448 423.3C469.3 418.7 490.7 419.3 512 420.8C533.3 422.3 554.7 424.7 576 432.2C597.3 439.7 618.7 452.3 640 452.5C661.3 452.7 682.7 440.3 704 439.8C725.3 439.3 746.7 450.7 768 453C789.3 455.3 810.7 448.7 832 440.3C853.3 432 874.7 422 896 417.8C917.3 413.7 938.7 415.3 949.3 416.2L960 417L960 541L949.3 541C938.7 541 917.3 541 896 541C874.7 541 853.3 541 832 541C810.7 541 789.3 541 768 541C746.7 541 725.3 541 704 541C682.7 541 661.3 541 640 541C618.7 541 597.3 541 576 541C554.7 541 533.3 541 512 541C490.7 541 469.3 541 448 541C426.7 541 405.3 541 384 541C362.7 541 341.3 541 320 541C298.7 541 277.3 541 256 541C234.7 541 213.3 541 192 541C170.7 541 149.3 541 128 541C106.7 541 85.3 541 64 541C42.7 541 21.3 541 10.7 541L0 541Z" fill="#bc3d1d"></path><path d="M0 474L10.7 472.2C21.3 470.3 42.7 466.7 64 464C85.3 461.3 106.7 459.7 128 464.8C149.3 470 170.7 482 192 482.7C213.3 483.3 234.7 472.7 256 472.5C277.3 472.3 298.7 482.7 320 484C341.3 485.3 362.7 477.7 384 478C405.3 478.3 426.7 486.7 448 482.2C469.3 477.7 490.7 460.3 512 453.7C533.3 447 554.7 451 576 452.3C597.3 453.7 618.7 452.3 640 454C661.3 455.7 682.7 460.3 704 463.5C725.3 466.7 746.7 468.3 768 468.3C789.3 468.3 810.7 466.7 832 464.5C853.3 462.3 874.7 459.7 896 460.8C917.3 462 938.7 467 949.3 469.5L960 472L960 541L949.3 541C938.7 541 917.3 541 896 541C874.7 541 853.3 541 832 541C810.7 541 789.3 541 768 541C746.7 541 725.3 541 704 541C682.7 541 661.3 541 640 541C618.7 541 597.3 541 576 541C554.7 541 533.3 541 512 541C490.7 541 469.3 541 448 541C426.7 541 405.3 541 384 541C362.7 541 341.3 541 320 541C298.7 541 277.3 541 256 541C234.7 541 213.3 541 192 541C170.7 541 149.3 541 128 541C106.7 541 85.3 541 64 541C42.7 541 21.3 541 10.7 541L0 541Z" fill="#a82c1d"></path><path d="M0 483L10.7 482.5C21.3 482 42.7 481 64 485.8C85.3 490.7 106.7 501.3 128 505.3C149.3 509.3 170.7 506.7 192 504.3C213.3 502 234.7 500 256 502.2C277.3 504.3 298.7 510.7 320 513C341.3 515.3 362.7 513.7 384 512.5C405.3 511.3 426.7 510.7 448 506.7C469.3 502.7 490.7 495.3 512 496.7C533.3 498 554.7 508 576 511.2C597.3 514.3 618.7 510.7 640 509.5C661.3 508.3 682.7 509.7 704 506.7C725.3 503.7 746.7 496.3 768 496.8C789.3 497.3 810.7 505.7 832 509.2C853.3 512.7 874.7 511.3 896 506.5C917.3 501.7 938.7 493.3 949.3 489.2L960 485L960 541L949.3 541C938.7 541 917.3 541 896 541C874.7 541 853.3 541 832 541C810.7 541 789.3 541 768 541C746.7 541 725.3 541 704 541C682.7 541 661.3 541 640 541C618.7 541 597.3 541 576 541C554.7 541 533.3 541 512 541C490.7 541 469.3 541 448 541C426.7 541 405.3 541 384 541C362.7 541 341.3 541 320 541C298.7 541 277.3 541 256 541C234.7 541 213.3 541 192 541C170.7 541 149.3 541 128 541C106.7 541 85.3 541 64 541C42.7 541 21.3 541 10.7 541L0 541Z" fill="#931c1c"></path></svg>